<mxfile host="65bd71144e" pages="4">
    <diagram id="c2kdn4JEAH6jtIj3PtNB" name="MCD">
        <mxGraphModel dx="1062" dy="4076" grid="0" gridSize="40" guides="1" tooltips="1" connect="1" arrows="1" fold="1" page="1" pageScale="1" pageWidth="1169" pageHeight="827" math="0" shadow="0">
            <root>
                <mxCell id="0"/>
                <mxCell id="1" parent="0"/>
                <mxCell id="2" value="Admin" style="swimlane;fontStyle=0;childLayout=stackLayout;horizontal=1;startSize=26;horizontalStack=0;resizeParent=1;resizeParentMax=0;resizeLast=0;collapsible=1;marginBottom=0;strokeWidth=1;fillColor=#ffe6cc;strokeColor=#d79b00;fontColor=#000000;" parent="1" vertex="1">
                    <mxGeometry x="525" y="-2407" width="140" height="52" as="geometry"/>
                </mxCell>
                <mxCell id="6" value="Â " style="text;strokeColor=none;fillColor=none;align=left;verticalAlign=top;spacingLeft=4;spacingRight=4;overflow=hidden;rotatable=0;points=[[0,0.5],[1,0.5]];portConstraint=eastwest;" parent="2" vertex="1">
                    <mxGeometry y="26" width="140" height="26" as="geometry"/>
                </mxCell>
                <mxCell id="14" value="Notary" style="swimlane;fontStyle=0;childLayout=stackLayout;horizontal=1;startSize=26;horizontalStack=0;resizeParent=1;resizeParentMax=0;resizeLast=0;collapsible=1;marginBottom=0;strokeWidth=1;fillColor=#FF5EFA;strokeColor=#d79b00;fontColor=#000000;" parent="1" vertex="1">
                    <mxGeometry x="835" y="-2407" width="160" height="78" as="geometry"/>
                </mxCell>
                <mxCell id="132" value="+ getDossier()" style="text;strokeColor=none;fillColor=none;align=left;verticalAlign=top;spacingLeft=4;spacingRight=4;overflow=hidden;rotatable=0;points=[[0,0.5],[1,0.5]];portConstraint=eastwest;" parent="14" vertex="1">
                    <mxGeometry y="26" width="160" height="26" as="geometry"/>
                </mxCell>
                <mxCell id="135" value="+ setDossier()" style="text;strokeColor=none;fillColor=none;align=left;verticalAlign=top;spacingLeft=4;spacingRight=4;overflow=hidden;rotatable=0;points=[[0,0.5],[1,0.5]];portConstraint=eastwest;" parent="14" vertex="1">
                    <mxGeometry y="52" width="160" height="26" as="geometry"/>
                </mxCell>
                <mxCell id="26" value="Partner" style="swimlane;fontStyle=0;childLayout=stackLayout;horizontal=1;startSize=26;horizontalStack=0;resizeParent=1;resizeParentMax=0;resizeLast=0;collapsible=1;marginBottom=0;fillColor=#e1d5e7;strokeColor=#9673a6;fontColor=#000000;" parent="1" vertex="1">
                    <mxGeometry x="175" y="-2430" width="140" height="416" as="geometry"/>
                </mxCell>
                <mxCell id="29" value="+ affiliation: String" style="text;strokeColor=none;fillColor=none;align=left;verticalAlign=top;spacingLeft=4;spacingRight=4;overflow=hidden;rotatable=0;points=[[0,0.5],[1,0.5]];portConstraint=eastwest;" parent="26" vertex="1">
                    <mxGeometry y="26" width="140" height="26" as="geometry"/>
                </mxCell>
                <mxCell id="60" value="+ siret: String" style="text;strokeColor=none;fillColor=none;align=left;verticalAlign=top;spacingLeft=4;spacingRight=4;overflow=hidden;rotatable=0;points=[[0,0.5],[1,0.5]];portConstraint=eastwest;" parent="26" vertex="1">
                    <mxGeometry y="52" width="140" height="26" as="geometry"/>
                </mxCell>
                <mxCell id="64" value="+ wallet: String" style="text;strokeColor=none;fillColor=none;align=left;verticalAlign=top;spacingLeft=4;spacingRight=4;overflow=hidden;rotatable=0;points=[[0,0.5],[1,0.5]];portConstraint=eastwest;" parent="26" vertex="1">
                    <mxGeometry y="78" width="140" height="26" as="geometry"/>
                </mxCell>
                <mxCell id="124" value="+ society: String" style="text;strokeColor=none;fillColor=none;align=left;verticalAlign=top;spacingLeft=4;spacingRight=4;overflow=hidden;rotatable=0;points=[[0,0.5],[1,0.5]];portConstraint=eastwest;" parent="26" vertex="1">
                    <mxGeometry y="104" width="140" height="26" as="geometry"/>
                </mxCell>
                <mxCell id="33" value="" style="endArrow=none;html=1;rounded=0;dashed=1;dashPattern=1 2;exitX=0;exitY=0.5;exitDx=0;exitDy=0;entryX=1;entryY=0.5;entryDx=0;entryDy=0;" parent="26" edge="1">
                    <mxGeometry relative="1" as="geometry">
                        <mxPoint y="142.28999999999996" as="sourcePoint"/>
                        <mxPoint x="140" y="142.28999999999996" as="targetPoint"/>
                    </mxGeometry>
                </mxCell>
                <mxCell id="30" style="text;strokeColor=none;fillColor=none;align=left;verticalAlign=top;spacingLeft=4;spacingRight=4;overflow=hidden;rotatable=0;points=[[0,0.5],[1,0.5]];portConstraint=eastwest;" parent="26" vertex="1">
                    <mxGeometry y="130" width="140" height="26" as="geometry"/>
                </mxCell>
                <mxCell id="42" value="+ setAffiliation()" style="text;strokeColor=none;fillColor=none;align=left;verticalAlign=top;spacingLeft=4;spacingRight=4;overflow=hidden;rotatable=0;points=[[0,0.5],[1,0.5]];portConstraint=eastwest;" parent="26" vertex="1">
                    <mxGeometry y="156" width="140" height="26" as="geometry"/>
                </mxCell>
                <mxCell id="43" value="+ getAffiliation()" style="text;strokeColor=none;fillColor=none;align=left;verticalAlign=top;spacingLeft=4;spacingRight=4;overflow=hidden;rotatable=0;points=[[0,0.5],[1,0.5]];portConstraint=eastwest;" parent="26" vertex="1">
                    <mxGeometry y="182" width="140" height="26" as="geometry"/>
                </mxCell>
                <mxCell id="62" value="+ getSiret()" style="text;strokeColor=none;fillColor=none;align=left;verticalAlign=top;spacingLeft=4;spacingRight=4;overflow=hidden;rotatable=0;points=[[0,0.5],[1,0.5]];portConstraint=eastwest;" parent="26" vertex="1">
                    <mxGeometry y="208" width="140" height="26" as="geometry"/>
                </mxCell>
                <mxCell id="63" value="+ setSiret()" style="text;strokeColor=none;fillColor=none;align=left;verticalAlign=top;spacingLeft=4;spacingRight=4;overflow=hidden;rotatable=0;points=[[0,0.5],[1,0.5]];portConstraint=eastwest;" parent="26" vertex="1">
                    <mxGeometry y="234" width="140" height="26" as="geometry"/>
                </mxCell>
                <mxCell id="65" value="+ getWallet()" style="text;strokeColor=none;fillColor=none;align=left;verticalAlign=top;spacingLeft=4;spacingRight=4;overflow=hidden;rotatable=0;points=[[0,0.5],[1,0.5]];portConstraint=eastwest;" parent="26" vertex="1">
                    <mxGeometry y="260" width="140" height="26" as="geometry"/>
                </mxCell>
                <mxCell id="66" value="+ setWallet()" style="text;strokeColor=none;fillColor=none;align=left;verticalAlign=top;spacingLeft=4;spacingRight=4;overflow=hidden;rotatable=0;points=[[0,0.5],[1,0.5]];portConstraint=eastwest;" parent="26" vertex="1">
                    <mxGeometry y="286" width="140" height="26" as="geometry"/>
                </mxCell>
                <mxCell id="125" value="+ setSociety()" style="text;strokeColor=none;fillColor=none;align=left;verticalAlign=top;spacingLeft=4;spacingRight=4;overflow=hidden;rotatable=0;points=[[0,0.5],[1,0.5]];portConstraint=eastwest;" parent="26" vertex="1">
                    <mxGeometry y="312" width="140" height="26" as="geometry"/>
                </mxCell>
                <mxCell id="126" value="+ getSociety()" style="text;strokeColor=none;fillColor=none;align=left;verticalAlign=top;spacingLeft=4;spacingRight=4;overflow=hidden;rotatable=0;points=[[0,0.5],[1,0.5]];portConstraint=eastwest;" parent="26" vertex="1">
                    <mxGeometry y="338" width="140" height="26" as="geometry"/>
                </mxCell>
                <mxCell id="150" value="+ getDossier()" style="text;strokeColor=none;fillColor=none;align=left;verticalAlign=top;spacingLeft=4;spacingRight=4;overflow=hidden;rotatable=0;points=[[0,0.5],[1,0.5]];portConstraint=eastwest;" parent="26" vertex="1">
                    <mxGeometry y="364" width="140" height="26" as="geometry"/>
                </mxCell>
                <mxCell id="151" value="+ setDossier()" style="text;strokeColor=none;fillColor=none;align=left;verticalAlign=top;spacingLeft=4;spacingRight=4;overflow=hidden;rotatable=0;points=[[0,0.5],[1,0.5]];portConstraint=eastwest;" parent="26" vertex="1">
                    <mxGeometry y="390" width="140" height="26" as="geometry"/>
                </mxCell>
                <mxCell id="67" value="Valuation" style="swimlane;fontStyle=0;childLayout=stackLayout;horizontal=1;startSize=26;horizontalStack=0;resizeParent=1;resizeParentMax=0;resizeLast=0;collapsible=1;marginBottom=0;strokeWidth=1;fillColor=#69FFF0;strokeColor=#d79b00;fontColor=#000000;" parent="1" vertex="1">
                    <mxGeometry x="525" y="-2093" width="160" height="338" as="geometry"/>
                </mxCell>
                <mxCell id="68" value="+ id: Int" style="text;strokeColor=none;fillColor=none;align=left;verticalAlign=top;spacingLeft=4;spacingRight=4;overflow=hidden;rotatable=0;points=[[0,0.5],[1,0.5]];portConstraint=eastwest;" parent="67" vertex="1">
                    <mxGeometry y="26" width="160" height="26" as="geometry"/>
                </mxCell>
                <mxCell id="DyF-W91oNDehp4zubR52-151" value="+ infoClient: Text" style="text;strokeColor=none;fillColor=none;align=left;verticalAlign=top;spacingLeft=4;spacingRight=4;overflow=hidden;rotatable=0;points=[[0,0.5],[1,0.5]];portConstraint=eastwest;" parent="67" vertex="1">
                    <mxGeometry y="52" width="160" height="26" as="geometry"/>
                </mxCell>
                <mxCell id="69" value="+ status: Enum" style="text;strokeColor=none;fillColor=none;align=left;verticalAlign=top;spacingLeft=4;spacingRight=4;overflow=hidden;rotatable=0;points=[[0,0.5],[1,0.5]];portConstraint=eastwest;" parent="67" vertex="1">
                    <mxGeometry y="78" width="160" height="26" as="geometry"/>
                </mxCell>
                <mxCell id="70" value="" style="endArrow=none;html=1;rounded=0;dashed=1;dashPattern=1 2;exitX=0;exitY=0.5;exitDx=0;exitDy=0;entryX=1;entryY=0.5;entryDx=0;entryDy=0;" parent="67" source="71" target="71" edge="1">
                    <mxGeometry relative="1" as="geometry">
                        <mxPoint x="10" y="220.5" as="sourcePoint"/>
                        <mxPoint x="150" y="220.5" as="targetPoint"/>
                    </mxGeometry>
                </mxCell>
                <mxCell id="71" style="text;strokeColor=none;fillColor=none;align=left;verticalAlign=top;spacingLeft=4;spacingRight=4;overflow=hidden;rotatable=0;points=[[0,0.5],[1,0.5]];portConstraint=eastwest;" parent="67" vertex="1">
                    <mxGeometry y="104" width="160" height="26" as="geometry"/>
                </mxCell>
                <mxCell id="72" value="+ setName()Â Â Â Â " style="text;strokeColor=none;fillColor=none;align=left;verticalAlign=top;spacingLeft=4;spacingRight=4;overflow=hidden;rotatable=0;points=[[0,0.5],[1,0.5]];portConstraint=eastwest;" parent="67" vertex="1">
                    <mxGeometry y="130" width="160" height="26" as="geometry"/>
                </mxCell>
                <mxCell id="73" value="+ getName()" style="text;strokeColor=none;fillColor=none;align=left;verticalAlign=top;spacingLeft=4;spacingRight=4;overflow=hidden;rotatable=0;points=[[0,0.5],[1,0.5]];portConstraint=eastwest;" parent="67" vertex="1">
                    <mxGeometry y="156" width="160" height="26" as="geometry"/>
                </mxCell>
                <mxCell id="74" value="+ setStatus()" style="text;strokeColor=none;fillColor=none;align=left;verticalAlign=top;spacingLeft=4;spacingRight=4;overflow=hidden;rotatable=0;points=[[0,0.5],[1,0.5]];portConstraint=eastwest;" parent="67" vertex="1">
                    <mxGeometry y="182" width="160" height="26" as="geometry"/>
                </mxCell>
                <mxCell id="75" value="+ getStatus()" style="text;strokeColor=none;fillColor=none;align=left;verticalAlign=top;spacingLeft=4;spacingRight=4;overflow=hidden;rotatable=0;points=[[0,0.5],[1,0.5]];portConstraint=eastwest;" parent="67" vertex="1">
                    <mxGeometry y="208" width="160" height="26" as="geometry"/>
                </mxCell>
                <mxCell id="76" value="+ getNotaire()&#10;" style="text;strokeColor=none;fillColor=none;align=left;verticalAlign=top;spacingLeft=4;spacingRight=4;overflow=hidden;rotatable=0;points=[[0,0.5],[1,0.5]];portConstraint=eastwest;" parent="67" vertex="1">
                    <mxGeometry y="234" width="160" height="26" as="geometry"/>
                </mxCell>
                <mxCell id="77" value="+ setNotaire()&#10;" style="text;strokeColor=none;fillColor=none;align=left;verticalAlign=top;spacingLeft=4;spacingRight=4;overflow=hidden;rotatable=0;points=[[0,0.5],[1,0.5]];portConstraint=eastwest;" parent="67" vertex="1">
                    <mxGeometry y="260" width="160" height="26" as="geometry"/>
                </mxCell>
                <mxCell id="128" value="+ getPartenaire()&#10;" style="text;strokeColor=none;fillColor=none;align=left;verticalAlign=top;spacingLeft=4;spacingRight=4;overflow=hidden;rotatable=0;points=[[0,0.5],[1,0.5]];portConstraint=eastwest;" parent="67" vertex="1">
                    <mxGeometry y="286" width="160" height="26" as="geometry"/>
                </mxCell>
                <mxCell id="129" value="+ setPartenaire()&#10;" style="text;strokeColor=none;fillColor=none;align=left;verticalAlign=top;spacingLeft=4;spacingRight=4;overflow=hidden;rotatable=0;points=[[0,0.5],[1,0.5]];portConstraint=eastwest;" parent="67" vertex="1">
                    <mxGeometry y="312" width="160" height="26" as="geometry"/>
                </mxCell>
                <mxCell id="38" value="" style="endArrow=none;html=1;rounded=0;entryX=0;entryY=0.5;entryDx=0;entryDy=0;edgeStyle=orthogonalEdgeStyle;exitX=1;exitY=0.5;exitDx=0;exitDy=0;" parent="1" source="30" target="71" edge="1">
                    <mxGeometry relative="1" as="geometry">
                        <mxPoint x="285" y="-2239" as="sourcePoint"/>
                        <mxPoint x="487" y="-2239" as="targetPoint"/>
                        <Array as="points">
                            <mxPoint x="315" y="-2287"/>
                            <mxPoint x="365" y="-2287"/>
                            <mxPoint x="365" y="-1976"/>
                        </Array>
                    </mxGeometry>
                </mxCell>
                <mxCell id="40" value="0..*" style="resizable=0;html=1;align=right;verticalAlign=bottom;" parent="38" connectable="0" vertex="1">
                    <mxGeometry x="1" relative="1" as="geometry">
                        <mxPoint x="-180" y="-311" as="offset"/>
                    </mxGeometry>
                </mxCell>
                <mxCell id="78" value="" style="endArrow=none;html=1;rounded=0;edgeStyle=orthogonalEdgeStyle;exitX=1;exitY=0.5;exitDx=0;exitDy=0;" parent="1" source="71" edge="1">
                    <mxGeometry relative="1" as="geometry">
                        <mxPoint x="295" y="-2229" as="sourcePoint"/>
                        <mxPoint x="835" y="-2357" as="targetPoint"/>
                        <Array as="points">
                            <mxPoint x="775" y="-1976"/>
                            <mxPoint x="775" y="-2357"/>
                            <mxPoint x="835" y="-2357"/>
                        </Array>
                    </mxGeometry>
                </mxCell>
                <mxCell id="79" value="1" style="resizable=0;html=1;align=left;verticalAlign=bottom;" parent="78" connectable="0" vertex="1">
                    <mxGeometry x="-1" relative="1" as="geometry">
                        <mxPoint x="-180" as="offset"/>
                    </mxGeometry>
                </mxCell>
                <mxCell id="81" value="1" style="text;html=1;align=center;verticalAlign=middle;resizable=0;points=[];autosize=1;strokeColor=none;fillColor=none;" parent="1" vertex="1">
                    <mxGeometry x="680" y="-2002" width="30" height="30" as="geometry"/>
                </mxCell>
                <mxCell id="82" value="0..*" style="text;html=1;align=center;verticalAlign=middle;resizable=0;points=[];autosize=1;strokeColor=none;fillColor=none;" parent="1" vertex="1">
                    <mxGeometry x="802" y="-2383" width="36" height="26" as="geometry"/>
                </mxCell>
                <mxCell id="92" value="User" style="swimlane;fontStyle=0;childLayout=stackLayout;horizontal=1;startSize=26;horizontalStack=0;resizeParent=1;resizeParentMax=0;resizeLast=0;collapsible=1;marginBottom=0;strokeWidth=1;fillColor=#ccffe0;strokeColor=#d79b00;fontColor=#000000;" parent="1" vertex="1">
                    <mxGeometry x="525" y="-2897" width="140" height="416" as="geometry"/>
                </mxCell>
                <mxCell id="83" value="+ firstName: String" style="text;strokeColor=none;fillColor=none;align=left;verticalAlign=top;spacingLeft=4;spacingRight=4;overflow=hidden;rotatable=0;points=[[0,0.5],[1,0.5]];portConstraint=eastwest;" parent="92" vertex="1">
                    <mxGeometry y="26" width="140" height="26" as="geometry"/>
                </mxCell>
                <mxCell id="85" value="+ email: String" style="text;strokeColor=none;fillColor=none;align=left;verticalAlign=top;spacingLeft=4;spacingRight=4;overflow=hidden;rotatable=0;points=[[0,0.5],[1,0.5]];portConstraint=eastwest;" parent="92" vertex="1">
                    <mxGeometry y="52" width="140" height="26" as="geometry"/>
                </mxCell>
                <mxCell id="84" value="+ lastName: String" style="text;strokeColor=none;fillColor=none;align=left;verticalAlign=top;spacingLeft=4;spacingRight=4;overflow=hidden;rotatable=0;points=[[0,0.5],[1,0.5]];portConstraint=eastwest;" parent="92" vertex="1">
                    <mxGeometry y="78" width="140" height="26" as="geometry"/>
                </mxCell>
                <mxCell id="110" value="+ roles: Enum" style="text;strokeColor=none;fillColor=none;align=left;verticalAlign=top;spacingLeft=4;spacingRight=4;overflow=hidden;rotatable=0;points=[[0,0.5],[1,0.5]];portConstraint=eastwest;" parent="92" vertex="1">
                    <mxGeometry y="104" width="140" height="26" as="geometry"/>
                </mxCell>
                <mxCell id="104" value="+ password: String" style="text;strokeColor=none;fillColor=none;align=left;verticalAlign=top;spacingLeft=4;spacingRight=4;overflow=hidden;rotatable=0;points=[[0,0.5],[1,0.5]];portConstraint=eastwest;" parent="92" vertex="1">
                    <mxGeometry y="130" width="140" height="26" as="geometry"/>
                </mxCell>
                <mxCell id="96" value="Â " style="text;strokeColor=none;fillColor=none;align=left;verticalAlign=top;spacingLeft=4;spacingRight=4;overflow=hidden;rotatable=0;points=[[0,0.5],[1,0.5]];portConstraint=eastwest;" parent="92" vertex="1">
                    <mxGeometry y="156" width="140" height="26" as="geometry"/>
                </mxCell>
                <mxCell id="86" value="+ getLastName()" style="text;strokeColor=none;fillColor=none;align=left;verticalAlign=top;spacingLeft=4;spacingRight=4;overflow=hidden;rotatable=0;points=[[0,0.5],[1,0.5]];portConstraint=eastwest;" parent="92" vertex="1">
                    <mxGeometry y="182" width="140" height="26" as="geometry"/>
                </mxCell>
                <mxCell id="87" value="+ setLastName()" style="text;strokeColor=none;fillColor=none;align=left;verticalAlign=top;spacingLeft=4;spacingRight=4;overflow=hidden;rotatable=0;points=[[0,0.5],[1,0.5]];portConstraint=eastwest;" parent="92" vertex="1">
                    <mxGeometry y="208" width="140" height="26" as="geometry"/>
                </mxCell>
                <mxCell id="91" value="+ setEmail()" style="text;strokeColor=none;fillColor=none;align=left;verticalAlign=top;spacingLeft=4;spacingRight=4;overflow=hidden;rotatable=0;points=[[0,0.5],[1,0.5]];portConstraint=eastwest;" parent="92" vertex="1">
                    <mxGeometry y="234" width="140" height="26" as="geometry"/>
                </mxCell>
                <mxCell id="90" value="+ getEmail()" style="text;strokeColor=none;fillColor=none;align=left;verticalAlign=top;spacingLeft=4;spacingRight=4;overflow=hidden;rotatable=0;points=[[0,0.5],[1,0.5]];portConstraint=eastwest;" parent="92" vertex="1">
                    <mxGeometry y="260" width="140" height="26" as="geometry"/>
                </mxCell>
                <mxCell id="89" value="+ setFirstName()" style="text;strokeColor=none;fillColor=none;align=left;verticalAlign=top;spacingLeft=4;spacingRight=4;overflow=hidden;rotatable=0;points=[[0,0.5],[1,0.5]];portConstraint=eastwest;" parent="92" vertex="1">
                    <mxGeometry y="286" width="140" height="26" as="geometry"/>
                </mxCell>
                <mxCell id="88" value="+ getFirstName()" style="text;strokeColor=none;fillColor=none;align=left;verticalAlign=top;spacingLeft=4;spacingRight=4;overflow=hidden;rotatable=0;points=[[0,0.5],[1,0.5]];portConstraint=eastwest;" parent="92" vertex="1">
                    <mxGeometry y="312" width="140" height="26" as="geometry"/>
                </mxCell>
                <mxCell id="97" value="" style="endArrow=none;html=1;rounded=0;dashed=1;dashPattern=1 2;exitX=0;exitY=0.5;exitDx=0;exitDy=0;entryX=1;entryY=0.5;entryDx=0;entryDy=0;" parent="92" source="96" target="96" edge="1">
                    <mxGeometry relative="1" as="geometry">
                        <mxPoint x="-2" y="116.57999999999993" as="sourcePoint"/>
                        <mxPoint x="138" y="116.57999999999993" as="targetPoint"/>
                    </mxGeometry>
                </mxCell>
                <mxCell id="100" value="+ setPassword()" style="text;strokeColor=none;fillColor=none;align=left;verticalAlign=top;spacingLeft=4;spacingRight=4;overflow=hidden;rotatable=0;points=[[0,0.5],[1,0.5]];portConstraint=eastwest;" parent="92" vertex="1">
                    <mxGeometry y="338" width="140" height="26" as="geometry"/>
                </mxCell>
                <mxCell id="102" value="+ getRoles()" style="text;strokeColor=none;fillColor=none;align=left;verticalAlign=top;spacingLeft=4;spacingRight=4;overflow=hidden;rotatable=0;points=[[0,0.5],[1,0.5]];portConstraint=eastwest;" parent="92" vertex="1">
                    <mxGeometry y="364" width="140" height="26" as="geometry"/>
                </mxCell>
                <mxCell id="103" value="+ setRoles()" style="text;strokeColor=none;fillColor=none;align=left;verticalAlign=top;spacingLeft=4;spacingRight=4;overflow=hidden;rotatable=0;points=[[0,0.5],[1,0.5]];portConstraint=eastwest;" parent="92" vertex="1">
                    <mxGeometry y="390" width="140" height="26" as="geometry"/>
                </mxCell>
                <mxCell id="112" value="" style="endArrow=none;html=1;rounded=0;entryX=0.5;entryY=0;entryDx=0;entryDy=0;edgeStyle=orthogonalEdgeStyle;exitX=0;exitY=0.5;exitDx=0;exitDy=0;" parent="1" source="96" target="26" edge="1">
                    <mxGeometry relative="1" as="geometry">
                        <mxPoint x="325" y="-2280" as="sourcePoint"/>
                        <mxPoint x="535" y="-1966" as="targetPoint"/>
                        <Array as="points">
                            <mxPoint x="245" y="-2728"/>
                        </Array>
                    </mxGeometry>
                </mxCell>
                <mxCell id="113" value="1" style="resizable=0;html=1;align=left;verticalAlign=bottom;" parent="112" connectable="0" vertex="1">
                    <mxGeometry x="-1" relative="1" as="geometry">
                        <mxPoint x="150" y="1" as="offset"/>
                    </mxGeometry>
                </mxCell>
                <mxCell id="115" value="1" style="resizable=0;html=1;align=left;verticalAlign=bottom;" parent="1" connectable="0" vertex="1">
                    <mxGeometry x="515" y="-1966" as="geometry">
                        <mxPoint x="-285" y="-443" as="offset"/>
                    </mxGeometry>
                </mxCell>
                <mxCell id="116" value="1" style="resizable=0;html=1;align=left;verticalAlign=bottom;" parent="1" connectable="0" vertex="1">
                    <mxGeometry x="515" y="-1966" as="geometry">
                        <mxPoint x="-4" y="-765" as="offset"/>
                    </mxGeometry>
                </mxCell>
                <mxCell id="117" value="" style="endArrow=none;html=1;rounded=0;entryX=0.5;entryY=0;entryDx=0;entryDy=0;edgeStyle=orthogonalEdgeStyle;exitX=1;exitY=0.5;exitDx=0;exitDy=0;" parent="1" source="96" target="14" edge="1">
                    <mxGeometry relative="1" as="geometry">
                        <mxPoint x="535" y="-2718" as="sourcePoint"/>
                        <mxPoint x="255" y="-2397" as="targetPoint"/>
                        <Array as="points">
                            <mxPoint x="915" y="-2728"/>
                        </Array>
                    </mxGeometry>
                </mxCell>
                <mxCell id="118" value="1" style="resizable=0;html=1;align=left;verticalAlign=bottom;" parent="117" connectable="0" vertex="1">
                    <mxGeometry x="-1" relative="1" as="geometry">
                        <mxPoint x="260" y="311" as="offset"/>
                    </mxGeometry>
                </mxCell>
                <mxCell id="120" value="" style="endArrow=none;html=1;rounded=0;edgeStyle=orthogonalEdgeStyle;exitX=0.484;exitY=0.989;exitDx=0;exitDy=0;exitPerimeter=0;" parent="1" edge="1">
                    <mxGeometry relative="1" as="geometry">
                        <mxPoint x="595.76" y="-2481.286" as="sourcePoint"/>
                        <mxPoint x="596" y="-2409" as="targetPoint"/>
                        <Array as="points">
                            <mxPoint x="596" y="-2407"/>
                        </Array>
                    </mxGeometry>
                </mxCell>
                <mxCell id="122" value="1" style="resizable=0;html=1;align=left;verticalAlign=bottom;" parent="1" connectable="0" vertex="1">
                    <mxGeometry x="695" y="-2717" as="geometry">
                        <mxPoint x="-115" y="257" as="offset"/>
                    </mxGeometry>
                </mxCell>
                <mxCell id="123" value="1" style="resizable=0;html=1;align=left;verticalAlign=bottom;" parent="1" connectable="0" vertex="1">
                    <mxGeometry x="694" y="-2667" as="geometry">
                        <mxPoint x="-115" y="257" as="offset"/>
                    </mxGeometry>
                </mxCell>
            </root>
        </mxGraphModel>
    </diagram>
    <diagram id="A8AOJJ6DMrcCSRXr7Mzw" name="SEQUENCE - ADMIN">
        <mxGraphModel dx="1062" dy="-59" grid="1" gridSize="40" guides="1" tooltips="1" connect="1" arrows="1" fold="1" page="1" pageScale="1" pageWidth="1169" pageHeight="827" math="0" shadow="0">
            <root>
                <mxCell id="0"/>
                <mxCell id="1" parent="0"/>
                <mxCell id="rX6NRV0pR7PgwgQQrbT--4" value="&lt;b&gt;Admin&lt;br&gt;&lt;/b&gt;" style="shape=umlFrame;whiteSpace=wrap;html=1;strokeWidth=2;width=120;height=40;" parent="1" vertex="1">
                    <mxGeometry x="220" y="880" width="730" height="1760" as="geometry"/>
                </mxCell>
                <mxCell id="rX6NRV0pR7PgwgQQrbT--1" value="&lt;b&gt;&lt;i&gt;seq&lt;/i&gt;&lt;/b&gt; valid valuation and assign notary" style="shape=umlFrame;whiteSpace=wrap;html=1;strokeWidth=1;width=86;height=80;" parent="1" vertex="1">
                    <mxGeometry x="253.86" y="2320" width="646.14" height="255" as="geometry"/>
                </mxCell>
                <mxCell id="rX6NRV0pR7PgwgQQrbT--22" value="&lt;b&gt;&lt;i&gt;seq&lt;/i&gt;&lt;/b&gt; get list valuation" style="shape=umlFrame;whiteSpace=wrap;html=1;strokeWidth=1;width=60;height=86;" parent="1" vertex="1">
                    <mxGeometry x="260" y="1434" width="630" height="255" as="geometry"/>
                </mxCell>
                <mxCell id="rX6NRV0pR7PgwgQQrbT--2" value="&lt;b&gt;&lt;i&gt;seq&lt;/i&gt;&lt;/b&gt;&amp;nbsp;delete valuation" style="shape=umlFrame;whiteSpace=wrap;html=1;strokeWidth=1;width=85;height=58;" parent="1" vertex="1">
                    <mxGeometry x="255" y="1742" width="630" height="255" as="geometry"/>
                </mxCell>
                <mxCell id="rX6NRV0pR7PgwgQQrbT--3" value="&lt;b&gt;&lt;i&gt;alt&lt;/i&gt;&lt;/b&gt;" style="shape=umlFrame;whiteSpace=wrap;html=1;strokeWidth=1;width=40;height=20;" parent="1" vertex="1">
                    <mxGeometry x="280" y="1587" width="580" height="80" as="geometry"/>
                </mxCell>
                <mxCell id="rX6NRV0pR7PgwgQQrbT--5" value="&lt;b&gt;&lt;i&gt;seq&lt;/i&gt;&lt;/b&gt;&amp;nbsp;add notary" style="shape=umlFrame;whiteSpace=wrap;html=1;strokeWidth=1;width=60;height=45;" parent="1" vertex="1">
                    <mxGeometry x="260" y="1174" width="440" height="226" as="geometry"/>
                </mxCell>
                <mxCell id="rX6NRV0pR7PgwgQQrbT--6" value="&lt;b&gt;&lt;i&gt;alt&lt;/i&gt;&lt;/b&gt;" style="shape=umlFrame;whiteSpace=wrap;html=1;strokeWidth=1;width=40;height=20;" parent="1" vertex="1">
                    <mxGeometry x="280" y="1241" width="380" height="80" as="geometry"/>
                </mxCell>
                <mxCell id="rX6NRV0pR7PgwgQQrbT--7" value=": Notary" style="shape=umlLifeline;perimeter=lifelinePerimeter;whiteSpace=wrap;html=1;container=1;collapsible=0;recursiveResize=0;outlineConnect=0;strokeWidth=1;" parent="1" vertex="1">
                    <mxGeometry x="556" y="960" width="120" height="1680" as="geometry"/>
                </mxCell>
                <mxCell id="rX6NRV0pR7PgwgQQrbT--8" value="" style="shape=umlLifeline;participant=umlActor;perimeter=lifelinePerimeter;whiteSpace=wrap;html=1;container=1;collapsible=0;recursiveResize=0;verticalAlign=top;spacingTop=36;outlineConnect=0;strokeWidth=1;" parent="1" vertex="1">
                    <mxGeometry x="341" y="960" width="20" height="1680" as="geometry"/>
                </mxCell>
                <mxCell id="rX6NRV0pR7PgwgQQrbT--11" value=": Admin" style="text;align=center;fontStyle=1;verticalAlign=middle;spacingLeft=3;spacingRight=3;strokeColor=none;rotatable=0;points=[[0,0.5],[1,0.5]];portConstraint=eastwest;" parent="1" vertex="1">
                    <mxGeometry x="311" y="930" width="80" height="26" as="geometry"/>
                </mxCell>
                <mxCell id="rX6NRV0pR7PgwgQQrbT--12" value="" style="html=1;points=[];perimeter=orthogonalPerimeter;strokeWidth=1;" parent="1" vertex="1">
                    <mxGeometry x="346" y="1204" width="10" height="156" as="geometry"/>
                </mxCell>
                <mxCell id="rX6NRV0pR7PgwgQQrbT--13" value="" style="html=1;points=[];perimeter=orthogonalPerimeter;strokeWidth=1;" parent="1" vertex="1">
                    <mxGeometry x="611" y="1204" width="10" height="156" as="geometry"/>
                </mxCell>
                <mxCell id="rX6NRV0pR7PgwgQQrbT--14" value="Add notary" style="html=1;verticalAlign=bottom;endArrow=block;entryX=0;entryY=0;rounded=0;exitX=0.9;exitY=0;exitDx=0;exitDy=0;exitPerimeter=0;" parent="1" source="rX6NRV0pR7PgwgQQrbT--12" target="rX6NRV0pR7PgwgQQrbT--13" edge="1">
                    <mxGeometry relative="1" as="geometry">
                        <mxPoint x="541" y="1204" as="sourcePoint"/>
                    </mxGeometry>
                </mxCell>
                <mxCell id="rX6NRV0pR7PgwgQQrbT--15" value="Return notary list and code 200" style="html=1;verticalAlign=bottom;endArrow=open;dashed=1;endSize=8;exitX=0;exitY=0.784;rounded=0;entryX=1;entryY=0.784;entryDx=0;entryDy=0;entryPerimeter=0;exitDx=0;exitDy=0;exitPerimeter=0;" parent="1" edge="1">
                    <mxGeometry relative="1" as="geometry">
                        <mxPoint x="356" y="1265.88" as="targetPoint"/>
                        <mxPoint x="611" y="1265.88" as="sourcePoint"/>
                    </mxGeometry>
                </mxCell>
                <mxCell id="rX6NRV0pR7PgwgQQrbT--20" value="" style="endArrow=none;dashed=1;html=1;exitX=-0.003;exitY=0.488;exitDx=0;exitDy=0;exitPerimeter=0;entryX=1.003;entryY=0.488;entryDx=0;entryDy=0;entryPerimeter=0;" parent="1" source="rX6NRV0pR7PgwgQQrbT--6" target="rX6NRV0pR7PgwgQQrbT--6" edge="1">
                    <mxGeometry width="50" height="50" relative="1" as="geometry">
                        <mxPoint x="590" y="1386" as="sourcePoint"/>
                        <mxPoint x="640" y="1336" as="targetPoint"/>
                    </mxGeometry>
                </mxCell>
                <mxCell id="rX6NRV0pR7PgwgQQrbT--21" value="Return error and code" style="html=1;verticalAlign=bottom;endArrow=open;dashed=1;endSize=8;exitX=0;exitY=0.784;rounded=0;entryX=1;entryY=0.784;entryDx=0;entryDy=0;entryPerimeter=0;exitDx=0;exitDy=0;exitPerimeter=0;" parent="1" edge="1">
                    <mxGeometry relative="1" as="geometry">
                        <mxPoint x="356" y="1306" as="targetPoint"/>
                        <mxPoint x="611" y="1306" as="sourcePoint"/>
                    </mxGeometry>
                </mxCell>
                <mxCell id="rX6NRV0pR7PgwgQQrbT--25" value="" style="html=1;points=[];perimeter=orthogonalPerimeter;strokeWidth=1;" parent="1" vertex="1">
                    <mxGeometry x="346" y="1464" width="10" height="195" as="geometry"/>
                </mxCell>
                <mxCell id="rX6NRV0pR7PgwgQQrbT--26" value="Get list valuation" style="html=1;verticalAlign=bottom;endArrow=block;entryX=0.3;entryY=0;rounded=0;exitX=0.9;exitY=0;exitDx=0;exitDy=0;exitPerimeter=0;entryDx=0;entryDy=0;entryPerimeter=0;" parent="1" source="rX6NRV0pR7PgwgQQrbT--25" target="rX6NRV0pR7PgwgQQrbT--32" edge="1">
                    <mxGeometry relative="1" as="geometry">
                        <mxPoint x="541" y="1464" as="sourcePoint"/>
                        <mxPoint x="611" y="1464" as="targetPoint"/>
                    </mxGeometry>
                </mxCell>
                <mxCell id="rX6NRV0pR7PgwgQQrbT--27" value="Return list valuation code 200" style="html=1;verticalAlign=bottom;endArrow=open;dashed=1;endSize=8;exitX=-0.3;exitY=0.738;rounded=0;entryX=1;entryY=0.784;entryDx=0;entryDy=0;entryPerimeter=0;exitDx=0;exitDy=0;exitPerimeter=0;" parent="1" source="rX6NRV0pR7PgwgQQrbT--32" edge="1">
                    <mxGeometry relative="1" as="geometry">
                        <mxPoint x="356" y="1608.88" as="targetPoint"/>
                        <mxPoint x="611" y="1608.88" as="sourcePoint"/>
                    </mxGeometry>
                </mxCell>
                <mxCell id="rX6NRV0pR7PgwgQQrbT--30" value="" style="endArrow=none;dashed=1;html=1;exitX=-0.003;exitY=0.488;exitDx=0;exitDy=0;exitPerimeter=0;entryX=1.005;entryY=0.45;entryDx=0;entryDy=0;entryPerimeter=0;" parent="1" edge="1">
                    <mxGeometry width="50" height="50" relative="1" as="geometry">
                        <mxPoint x="278.8599999999999" y="1627.04" as="sourcePoint"/>
                        <mxPoint x="862.9000000000001" y="1627" as="targetPoint"/>
                    </mxGeometry>
                </mxCell>
                <mxCell id="rX6NRV0pR7PgwgQQrbT--31" value="Return error and code" style="html=1;verticalAlign=bottom;endArrow=open;dashed=1;endSize=8;exitX=-0.3;exitY=0.949;rounded=0;entryX=1;entryY=0.784;entryDx=0;entryDy=0;entryPerimeter=0;exitDx=0;exitDy=0;exitPerimeter=0;" parent="1" source="rX6NRV0pR7PgwgQQrbT--32" edge="1">
                    <mxGeometry relative="1" as="geometry">
                        <mxPoint x="356" y="1649" as="targetPoint"/>
                        <mxPoint x="611" y="1649" as="sourcePoint"/>
                    </mxGeometry>
                </mxCell>
                <mxCell id="rX6NRV0pR7PgwgQQrbT--58" value="&lt;i style=&quot;font-weight: bold;&quot;&gt;opt &lt;/i&gt;if not connected" style="shape=umlFrame;whiteSpace=wrap;html=1;strokeWidth=1;width=80;height=31;" parent="1" vertex="1">
                    <mxGeometry x="260" y="1009" width="240" height="111" as="geometry"/>
                </mxCell>
                <mxCell id="rX6NRV0pR7PgwgQQrbT--59" value="" style="html=1;points=[];perimeter=orthogonalPerimeter;strokeWidth=1;" parent="1" vertex="1">
                    <mxGeometry x="346" y="1036.75" width="10" height="55.5" as="geometry"/>
                </mxCell>
                <mxCell id="rX6NRV0pR7PgwgQQrbT--60" value="Login" style="edgeStyle=orthogonalEdgeStyle;html=1;align=left;spacingLeft=2;endArrow=block;rounded=0;entryX=1;entryY=0.365;entryDx=0;entryDy=0;entryPerimeter=0;" parent="1" target="rX6NRV0pR7PgwgQQrbT--59" edge="1">
                    <mxGeometry x="-0.0841" relative="1" as="geometry">
                        <mxPoint x="356" y="1036.75" as="sourcePoint"/>
                        <Array as="points">
                            <mxPoint x="386" y="1037"/>
                            <mxPoint x="386" y="1057"/>
                        </Array>
                        <mxPoint x="363.5" y="1056.75" as="targetPoint"/>
                        <mxPoint as="offset"/>
                    </mxGeometry>
                </mxCell>
                <mxCell id="rX6NRV0pR7PgwgQQrbT--61" value=": Valuation" style="shape=umlLifeline;perimeter=lifelinePerimeter;whiteSpace=wrap;html=1;container=1;collapsible=0;recursiveResize=0;outlineConnect=0;strokeWidth=1;" parent="1" vertex="1">
                    <mxGeometry x="790" y="960" width="100" height="1680" as="geometry"/>
                </mxCell>
                <mxCell id="rX6NRV0pR7PgwgQQrbT--34" value="&lt;b&gt;&lt;i&gt;alt&lt;/i&gt;&lt;/b&gt;" style="shape=umlFrame;whiteSpace=wrap;html=1;strokeWidth=1;width=40;height=20;" parent="rX6NRV0pR7PgwgQQrbT--61" vertex="1">
                    <mxGeometry x="-520" y="932" width="613.86" height="80" as="geometry"/>
                </mxCell>
                <mxCell id="rX6NRV0pR7PgwgQQrbT--32" value="" style="html=1;points=[];perimeter=orthogonalPerimeter;strokeWidth=1;" parent="rX6NRV0pR7PgwgQQrbT--61" vertex="1">
                    <mxGeometry x="45" y="504" width="10" height="195" as="geometry"/>
                </mxCell>
                <mxCell id="rX6NRV0pR7PgwgQQrbT--44" value="" style="html=1;points=[];perimeter=orthogonalPerimeter;strokeWidth=1;" parent="rX6NRV0pR7PgwgQQrbT--61" vertex="1">
                    <mxGeometry x="44.860000000000014" y="817" width="10" height="195" as="geometry"/>
                </mxCell>
                <mxCell id="rX6NRV0pR7PgwgQQrbT--38" value="Delete valuation" style="html=1;verticalAlign=bottom;endArrow=block;entryX=0;entryY=0;rounded=0;exitX=1.1;exitY=0;exitDx=0;exitDy=0;exitPerimeter=0;" parent="rX6NRV0pR7PgwgQQrbT--61" source="rX6NRV0pR7PgwgQQrbT--37" edge="1">
                    <mxGeometry relative="1" as="geometry">
                        <mxPoint x="-211.14" y="817" as="sourcePoint"/>
                        <mxPoint x="44.860000000000014" y="817" as="targetPoint"/>
                    </mxGeometry>
                </mxCell>
                <mxCell id="rX6NRV0pR7PgwgQQrbT--39" value="Return code 201" style="html=1;verticalAlign=bottom;endArrow=open;dashed=1;endSize=8;exitX=0;exitY=0.784;rounded=0;exitDx=0;exitDy=0;exitPerimeter=0;entryX=0.9;entryY=0.744;entryDx=0;entryDy=0;entryPerimeter=0;" parent="rX6NRV0pR7PgwgQQrbT--61" target="rX6NRV0pR7PgwgQQrbT--37" edge="1">
                    <mxGeometry relative="1" as="geometry">
                        <mxPoint x="-210.14" y="961.8800000000001" as="targetPoint"/>
                        <mxPoint x="44.860000000000014" y="961.8800000000001" as="sourcePoint"/>
                    </mxGeometry>
                </mxCell>
                <mxCell id="rX6NRV0pR7PgwgQQrbT--42" value="" style="endArrow=none;dashed=1;html=1;exitX=-0.003;exitY=0.55;exitDx=0;exitDy=0;exitPerimeter=0;entryX=1.003;entryY=0.488;entryDx=0;entryDy=0;entryPerimeter=0;" parent="rX6NRV0pR7PgwgQQrbT--61" source="rX6NRV0pR7PgwgQQrbT--34" edge="1">
                    <mxGeometry width="50" height="50" relative="1" as="geometry">
                        <mxPoint x="-287.2800000000001" y="976.04" as="sourcePoint"/>
                        <mxPoint x="94.99999999999989" y="976.04" as="targetPoint"/>
                    </mxGeometry>
                </mxCell>
                <mxCell id="rX6NRV0pR7PgwgQQrbT--43" value="Return error and code" style="html=1;verticalAlign=bottom;endArrow=open;dashed=1;endSize=8;exitX=0;exitY=0.784;rounded=0;exitDx=0;exitDy=0;exitPerimeter=0;" parent="rX6NRV0pR7PgwgQQrbT--61" target="rX6NRV0pR7PgwgQQrbT--37" edge="1">
                    <mxGeometry relative="1" as="geometry">
                        <mxPoint x="-210.14" y="1002" as="targetPoint"/>
                        <mxPoint x="44.860000000000014" y="1002" as="sourcePoint"/>
                    </mxGeometry>
                </mxCell>
                <mxCell id="rX6NRV0pR7PgwgQQrbT--37" value="" style="html=1;points=[];perimeter=orthogonalPerimeter;strokeWidth=1;" parent="1" vertex="1">
                    <mxGeometry x="346" y="1777" width="10" height="195" as="geometry"/>
                </mxCell>
                <mxCell id="rX6NRV0pR7PgwgQQrbT--62" value="&lt;b&gt;&lt;i&gt;seq&lt;/i&gt;&lt;/b&gt;&amp;nbsp;update valuation" style="shape=umlFrame;whiteSpace=wrap;html=1;strokeWidth=1;width=85;height=58;" parent="1" vertex="1">
                    <mxGeometry x="255" y="2040" width="630" height="255" as="geometry"/>
                </mxCell>
                <mxCell id="rX6NRV0pR7PgwgQQrbT--63" value="&lt;b&gt;&lt;i&gt;alt&lt;/i&gt;&lt;/b&gt;" style="shape=umlFrame;whiteSpace=wrap;html=1;strokeWidth=1;width=40;height=20;" parent="1" vertex="1">
                    <mxGeometry x="270" y="2190" width="613.86" height="80" as="geometry"/>
                </mxCell>
                <mxCell id="rX6NRV0pR7PgwgQQrbT--64" value="" style="html=1;points=[];perimeter=orthogonalPerimeter;strokeWidth=1;" parent="1" vertex="1">
                    <mxGeometry x="834.86" y="2075" width="10" height="195" as="geometry"/>
                </mxCell>
                <mxCell id="rX6NRV0pR7PgwgQQrbT--65" value="Update valuation" style="html=1;verticalAlign=bottom;endArrow=block;entryX=0;entryY=0;rounded=0;exitX=1.1;exitY=0;exitDx=0;exitDy=0;exitPerimeter=0;" parent="1" source="rX6NRV0pR7PgwgQQrbT--69" edge="1">
                    <mxGeometry x="0.017" y="-5" relative="1" as="geometry">
                        <mxPoint x="-191.14" y="635" as="sourcePoint"/>
                        <mxPoint x="834.8600000000001" y="2075" as="targetPoint"/>
                        <mxPoint as="offset"/>
                    </mxGeometry>
                </mxCell>
                <mxCell id="rX6NRV0pR7PgwgQQrbT--66" value="Return code 200" style="html=1;verticalAlign=bottom;endArrow=open;dashed=1;endSize=8;exitX=0;exitY=0.784;rounded=0;exitDx=0;exitDy=0;exitPerimeter=0;entryX=0.9;entryY=0.744;entryDx=0;entryDy=0;entryPerimeter=0;" parent="1" target="rX6NRV0pR7PgwgQQrbT--69" edge="1">
                    <mxGeometry relative="1" as="geometry">
                        <mxPoint x="-190.14" y="779.8800000000001" as="targetPoint"/>
                        <mxPoint x="834.8600000000001" y="2219.88" as="sourcePoint"/>
                    </mxGeometry>
                </mxCell>
                <mxCell id="rX6NRV0pR7PgwgQQrbT--67" value="" style="endArrow=none;dashed=1;html=1;exitX=-0.003;exitY=0.55;exitDx=0;exitDy=0;exitPerimeter=0;entryX=1.003;entryY=0.488;entryDx=0;entryDy=0;entryPerimeter=0;" parent="1" source="rX6NRV0pR7PgwgQQrbT--63" edge="1">
                    <mxGeometry width="50" height="50" relative="1" as="geometry">
                        <mxPoint x="-267.2800000000001" y="794.04" as="sourcePoint"/>
                        <mxPoint x="885" y="2234.04" as="targetPoint"/>
                    </mxGeometry>
                </mxCell>
                <mxCell id="rX6NRV0pR7PgwgQQrbT--68" value="Return error and code" style="html=1;verticalAlign=bottom;endArrow=open;dashed=1;endSize=8;exitX=0;exitY=0.784;rounded=0;exitDx=0;exitDy=0;exitPerimeter=0;" parent="1" target="rX6NRV0pR7PgwgQQrbT--69" edge="1">
                    <mxGeometry relative="1" as="geometry">
                        <mxPoint x="-190.14" y="820" as="targetPoint"/>
                        <mxPoint x="834.8600000000001" y="2260" as="sourcePoint"/>
                    </mxGeometry>
                </mxCell>
                <mxCell id="rX6NRV0pR7PgwgQQrbT--69" value="" style="html=1;points=[];perimeter=orthogonalPerimeter;strokeWidth=1;" parent="1" vertex="1">
                    <mxGeometry x="346" y="2075" width="10" height="195" as="geometry"/>
                </mxCell>
                <mxCell id="rX6NRV0pR7PgwgQQrbT--50" value="Assign valuation to notary" style="html=1;verticalAlign=bottom;endArrow=block;entryX=0.114;entryY=0;rounded=0;exitX=0.9;exitY=0;exitDx=0;exitDy=0;exitPerimeter=0;entryDx=0;entryDy=0;entryPerimeter=0;" parent="1" source="rX6NRV0pR7PgwgQQrbT--49" target="rX6NRV0pR7PgwgQQrbT--56" edge="1">
                    <mxGeometry relative="1" as="geometry">
                        <mxPoint x="541" y="2350" as="sourcePoint"/>
                        <mxPoint x="611" y="2350" as="targetPoint"/>
                    </mxGeometry>
                </mxCell>
                <mxCell id="rX6NRV0pR7PgwgQQrbT--51" value="Return&amp;nbsp;code 200" style="html=1;verticalAlign=bottom;endArrow=open;dashed=1;endSize=8;exitX=-0.486;exitY=0.744;rounded=0;entryX=1;entryY=0.784;entryDx=0;entryDy=0;entryPerimeter=0;exitDx=0;exitDy=0;exitPerimeter=0;" parent="1" edge="1">
                    <mxGeometry relative="1" as="geometry">
                        <mxPoint x="356" y="2431.88" as="targetPoint"/>
                        <mxPoint x="830.0000000000002" y="2432.08" as="sourcePoint"/>
                    </mxGeometry>
                </mxCell>
                <mxCell id="rX6NRV0pR7PgwgQQrbT--56" value="" style="html=1;points=[];perimeter=orthogonalPerimeter;strokeWidth=1;" parent="1" vertex="1">
                    <mxGeometry x="834.86" y="2350" width="10" height="210" as="geometry"/>
                </mxCell>
                <mxCell id="rX6NRV0pR7PgwgQQrbT--49" value="" style="html=1;points=[];perimeter=orthogonalPerimeter;strokeWidth=1;" parent="1" vertex="1">
                    <mxGeometry x="346" y="2350" width="10" height="210" as="geometry"/>
                </mxCell>
                <mxCell id="Co8FMS9go_58biIjxT60-1" value="Assign valuation to notary" style="html=1;verticalAlign=bottom;endArrow=block;entryX=0.114;entryY=0;rounded=0;exitX=0.9;exitY=0;exitDx=0;exitDy=0;exitPerimeter=0;entryDx=0;entryDy=0;entryPerimeter=0;" parent="1" edge="1">
                    <mxGeometry relative="1" as="geometry">
                        <mxPoint x="356" y="2500" as="sourcePoint"/>
                        <mxPoint x="837.0000000000002" y="2500" as="targetPoint"/>
                    </mxGeometry>
                </mxCell>
                <mxCell id="Co8FMS9go_58biIjxT60-2" value="Return code 200" style="html=1;verticalAlign=bottom;endArrow=open;dashed=1;endSize=8;exitX=-0.386;exitY=0.949;rounded=0;exitDx=0;exitDy=0;exitPerimeter=0;" parent="1" edge="1">
                    <mxGeometry relative="1" as="geometry">
                        <mxPoint x="358" y="2559" as="targetPoint"/>
                        <mxPoint x="832.8600000000002" y="2559.055" as="sourcePoint"/>
                    </mxGeometry>
                </mxCell>
            </root>
        </mxGraphModel>
    </diagram>
    <diagram id="FhD4lXpAMHd-yk7DW1hs" name="SEQUENCE - NOTAIRE">
        <mxGraphModel dx="1196" dy="-19" grid="1" gridSize="40" guides="1" tooltips="1" connect="1" arrows="1" fold="1" page="1" pageScale="1" pageWidth="1169" pageHeight="827" math="0" shadow="0">
            <root>
                <mxCell id="0"/>
                <mxCell id="1" parent="0"/>
                <mxCell id="WeimmeQ9xtYA0SjYn-RU-1" value="&lt;b&gt;Notary&amp;nbsp;&lt;br&gt;&lt;/b&gt;" style="shape=umlFrame;whiteSpace=wrap;html=1;strokeWidth=2;width=120;height=40;" parent="1" vertex="1">
                    <mxGeometry x="215" y="880" width="780" height="1080" as="geometry"/>
                </mxCell>
                <mxCell id="F99pCLDOGcE_f7UFOYjV-1" value="&lt;b&gt;&lt;i&gt;seq&lt;/i&gt;&lt;/b&gt;&amp;nbsp;analyse a valuation" style="shape=umlFrame;whiteSpace=wrap;html=1;strokeWidth=1;width=86;height=80;" parent="1" vertex="1">
                    <mxGeometry x="240" y="1480" width="720" height="440" as="geometry"/>
                </mxCell>
                <mxCell id="F99pCLDOGcE_f7UFOYjV-2" value="&lt;b&gt;&lt;i&gt;alt&lt;/i&gt;&lt;/b&gt;" style="shape=umlFrame;whiteSpace=wrap;html=1;strokeWidth=1;width=40;height=20;" parent="1" vertex="1">
                    <mxGeometry x="280" y="1671" width="640" height="169" as="geometry"/>
                </mxCell>
                <mxCell id="PVj1xigtGOEYr64sqDAZ-2" value="" style="shape=umlLifeline;participant=umlActor;perimeter=lifelinePerimeter;whiteSpace=wrap;html=1;container=1;collapsible=0;recursiveResize=0;verticalAlign=top;spacingTop=36;outlineConnect=0;strokeWidth=1;" parent="1" vertex="1">
                    <mxGeometry x="351" y="960" width="20" height="1000" as="geometry"/>
                </mxCell>
                <mxCell id="PVj1xigtGOEYr64sqDAZ-3" value=": Valuation" style="shape=umlLifeline;perimeter=lifelinePerimeter;whiteSpace=wrap;html=1;container=1;collapsible=0;recursiveResize=0;outlineConnect=0;strokeWidth=1;" parent="1" vertex="1">
                    <mxGeometry x="799.86" y="960" width="100" height="1000" as="geometry"/>
                </mxCell>
                <mxCell id="zv8TByhtr1ZErZT_Yi_p-1" value=": Notary" style="text;align=center;fontStyle=1;verticalAlign=middle;spacingLeft=3;spacingRight=3;strokeColor=none;rotatable=0;points=[[0,0.5],[1,0.5]];portConstraint=eastwest;" parent="1" vertex="1">
                    <mxGeometry x="321" y="934" width="80" height="26" as="geometry"/>
                </mxCell>
                <mxCell id="s7MQ0damqKgDqDlwq2-9-1" value="&lt;b&gt;&lt;i&gt;seq&lt;/i&gt;&lt;/b&gt;&amp;nbsp;find a valuation" style="shape=umlFrame;whiteSpace=wrap;html=1;strokeWidth=1;width=86;height=80;" parent="1" vertex="1">
                    <mxGeometry x="263.86" y="1174" width="656.14" height="255" as="geometry"/>
                </mxCell>
                <mxCell id="s7MQ0damqKgDqDlwq2-9-2" value="&lt;b&gt;&lt;i&gt;alt&lt;/i&gt;&lt;/b&gt;" style="shape=umlFrame;whiteSpace=wrap;html=1;strokeWidth=1;width=40;height=20;" parent="1" vertex="1">
                    <mxGeometry x="290" y="1319" width="580" height="81" as="geometry"/>
                </mxCell>
                <mxCell id="s7MQ0damqKgDqDlwq2-9-4" value="if valuation is validated by admin return valuation and code 200" style="html=1;verticalAlign=bottom;endArrow=open;dashed=1;endSize=8;exitX=-0.486;exitY=0.744;rounded=0;entryX=1;entryY=0.784;entryDx=0;entryDy=0;entryPerimeter=0;exitDx=0;exitDy=0;exitPerimeter=0;" parent="1" source="s7MQ0damqKgDqDlwq2-9-7" edge="1">
                    <mxGeometry relative="1" as="geometry">
                        <mxPoint x="366" y="1348.88" as="targetPoint"/>
                        <mxPoint x="621" y="1348.88" as="sourcePoint"/>
                    </mxGeometry>
                </mxCell>
                <mxCell id="s7MQ0damqKgDqDlwq2-9-5" value="" style="endArrow=none;dashed=1;html=1;exitX=-0.003;exitY=0.488;exitDx=0;exitDy=0;exitPerimeter=0;entryX=1;entryY=0.55;entryDx=0;entryDy=0;entryPerimeter=0;" parent="1" target="s7MQ0damqKgDqDlwq2-9-2" edge="1">
                    <mxGeometry width="50" height="50" relative="1" as="geometry">
                        <mxPoint x="288.8599999999999" y="1363.04" as="sourcePoint"/>
                        <mxPoint x="671.1399999999999" y="1363.04" as="targetPoint"/>
                    </mxGeometry>
                </mxCell>
                <mxCell id="s7MQ0damqKgDqDlwq2-9-6" value="if valuation is not validated by admin return error and code" style="html=1;verticalAlign=bottom;endArrow=open;dashed=1;endSize=8;exitX=-0.386;exitY=0.949;rounded=0;entryX=1;entryY=0.784;entryDx=0;entryDy=0;entryPerimeter=0;exitDx=0;exitDy=0;exitPerimeter=0;" parent="1" source="s7MQ0damqKgDqDlwq2-9-7" edge="1">
                    <mxGeometry relative="1" as="geometry">
                        <mxPoint x="366" y="1389" as="targetPoint"/>
                        <mxPoint x="621" y="1389" as="sourcePoint"/>
                    </mxGeometry>
                </mxCell>
                <mxCell id="s7MQ0damqKgDqDlwq2-9-7" value="" style="html=1;points=[];perimeter=orthogonalPerimeter;strokeWidth=1;" parent="1" vertex="1">
                    <mxGeometry x="844.86" y="1204" width="10" height="195" as="geometry"/>
                </mxCell>
                <mxCell id="s7MQ0damqKgDqDlwq2-9-8" value="" style="html=1;points=[];perimeter=orthogonalPerimeter;strokeWidth=1;" parent="1" vertex="1">
                    <mxGeometry x="356" y="1204" width="10" height="195" as="geometry"/>
                </mxCell>
                <mxCell id="s7MQ0damqKgDqDlwq2-9-3" value="Select valuation in assignated valuations list" style="html=1;verticalAlign=bottom;endArrow=block;entryX=0.114;entryY=0;rounded=0;exitX=0.9;exitY=0;exitDx=0;exitDy=0;exitPerimeter=0;entryDx=0;entryDy=0;entryPerimeter=0;" parent="1" source="s7MQ0damqKgDqDlwq2-9-8" target="s7MQ0damqKgDqDlwq2-9-7" edge="1">
                    <mxGeometry x="-0.0021" relative="1" as="geometry">
                        <mxPoint x="551" y="1204" as="sourcePoint"/>
                        <mxPoint x="621" y="1204" as="targetPoint"/>
                        <mxPoint as="offset"/>
                    </mxGeometry>
                </mxCell>
                <mxCell id="H4djvPQudrwN2qpmOXSY-1" value="&lt;i style=&quot;font-weight: bold;&quot;&gt;opt &lt;/i&gt;if not connected" style="shape=umlFrame;whiteSpace=wrap;html=1;strokeWidth=1;width=80;height=31;" parent="1" vertex="1">
                    <mxGeometry x="269.86" y="1016" width="240" height="111" as="geometry"/>
                </mxCell>
                <mxCell id="H4djvPQudrwN2qpmOXSY-2" value="" style="html=1;points=[];perimeter=orthogonalPerimeter;strokeWidth=1;" parent="1" vertex="1">
                    <mxGeometry x="355.86" y="1043.75" width="10" height="55.5" as="geometry"/>
                </mxCell>
                <mxCell id="H4djvPQudrwN2qpmOXSY-3" value="Login" style="edgeStyle=orthogonalEdgeStyle;html=1;align=left;spacingLeft=2;endArrow=block;rounded=0;entryX=1;entryY=0.365;entryDx=0;entryDy=0;entryPerimeter=0;" parent="1" target="H4djvPQudrwN2qpmOXSY-2" edge="1">
                    <mxGeometry x="-0.0841" relative="1" as="geometry">
                        <mxPoint x="365.86" y="1043.75" as="sourcePoint"/>
                        <Array as="points">
                            <mxPoint x="395.86" y="1044"/>
                            <mxPoint x="395.86" y="1064"/>
                        </Array>
                        <mxPoint x="373.36" y="1063.75" as="targetPoint"/>
                        <mxPoint as="offset"/>
                    </mxGeometry>
                </mxCell>
                <mxCell id="F99pCLDOGcE_f7UFOYjV-4" value="" style="endArrow=none;dashed=1;html=1;exitX=0.001;exitY=0.439;exitDx=0;exitDy=0;exitPerimeter=0;entryX=1;entryY=0.553;entryDx=0;entryDy=0;entryPerimeter=0;" parent="1" source="F99pCLDOGcE_f7UFOYjV-2" edge="1">
                    <mxGeometry width="50" height="50" relative="1" as="geometry">
                        <mxPoint x="288.74" y="1745.3020000000001" as="sourcePoint"/>
                        <mxPoint x="920" y="1744.457" as="targetPoint"/>
                    </mxGeometry>
                </mxCell>
                <mxCell id="F99pCLDOGcE_f7UFOYjV-5" value="Return valuation with status and code 200&amp;nbsp;" style="html=1;verticalAlign=bottom;endArrow=open;dashed=1;endSize=8;exitX=0.052;exitY=0.943;rounded=0;entryX=1.076;entryY=0.946;entryDx=0;entryDy=0;entryPerimeter=0;exitDx=0;exitDy=0;exitPerimeter=0;" parent="1" edge="1">
                    <mxGeometry x="0.0254" y="2" relative="1" as="geometry">
                        <mxPoint x="366.76" y="1878.5" as="targetPoint"/>
                        <mxPoint x="845.3800000000001" y="1877.75" as="sourcePoint"/>
                        <mxPoint as="offset"/>
                    </mxGeometry>
                </mxCell>
                <mxCell id="F99pCLDOGcE_f7UFOYjV-6" value="" style="html=1;points=[];perimeter=orthogonalPerimeter;strokeWidth=1;" parent="1" vertex="1">
                    <mxGeometry x="844.86" y="1510" width="10" height="370" as="geometry"/>
                </mxCell>
                <mxCell id="F99pCLDOGcE_f7UFOYjV-7" value="" style="html=1;points=[];perimeter=orthogonalPerimeter;strokeWidth=1;" parent="1" vertex="1">
                    <mxGeometry x="356" y="1510" width="10" height="370" as="geometry"/>
                </mxCell>
                <mxCell id="F99pCLDOGcE_f7UFOYjV-8" value="Analyse valuation" style="html=1;verticalAlign=bottom;endArrow=block;entryX=0.114;entryY=0;rounded=0;exitX=0.9;exitY=0;exitDx=0;exitDy=0;exitPerimeter=0;entryDx=0;entryDy=0;entryPerimeter=0;" parent="1" source="F99pCLDOGcE_f7UFOYjV-7" target="F99pCLDOGcE_f7UFOYjV-6" edge="1">
                    <mxGeometry x="0.0008" relative="1" as="geometry">
                        <mxPoint x="551" y="1510" as="sourcePoint"/>
                        <mxPoint x="621" y="1510" as="targetPoint"/>
                        <mxPoint as="offset"/>
                    </mxGeometry>
                </mxCell>
                <mxCell id="Mr87jgYwq6zl1bmTX8MG-4" value="" style="html=1;points=[];perimeter=orthogonalPerimeter;strokeWidth=1;" parent="1" vertex="1">
                    <mxGeometry x="854.86" y="1510" width="10" height="50" as="geometry"/>
                </mxCell>
                <mxCell id="Mr87jgYwq6zl1bmTX8MG-5" value="Send proposal to client and&lt;br&gt;change valuation status to proposal" style="edgeStyle=orthogonalEdgeStyle;html=1;align=left;spacingLeft=2;endArrow=block;rounded=0;" parent="1" edge="1">
                    <mxGeometry x="-0.0841" relative="1" as="geometry">
                        <mxPoint x="864.8600000000004" y="1512" as="sourcePoint"/>
                        <Array as="points">
                            <mxPoint x="920" y="1512"/>
                            <mxPoint x="920" y="1535"/>
                        </Array>
                        <mxPoint x="865" y="1535" as="targetPoint"/>
                        <mxPoint as="offset"/>
                    </mxGeometry>
                </mxCell>
                <mxCell id="Mr87jgYwq6zl1bmTX8MG-6" value="" style="html=1;points=[];perimeter=orthogonalPerimeter;strokeWidth=1;" parent="1" vertex="1">
                    <mxGeometry x="854.86" y="1681" width="10" height="50" as="geometry"/>
                </mxCell>
                <mxCell id="Mr87jgYwq6zl1bmTX8MG-7" value="Change valuation status to accepted" style="edgeStyle=orthogonalEdgeStyle;html=1;align=left;spacingLeft=2;endArrow=block;rounded=0;" parent="1" edge="1">
                    <mxGeometry x="-0.0841" relative="1" as="geometry">
                        <mxPoint x="864.8600000000004" y="1683" as="sourcePoint"/>
                        <Array as="points">
                            <mxPoint x="880" y="1683"/>
                            <mxPoint x="880" y="1706"/>
                        </Array>
                        <mxPoint x="865" y="1706" as="targetPoint"/>
                        <mxPoint as="offset"/>
                    </mxGeometry>
                </mxCell>
                <mxCell id="Mr87jgYwq6zl1bmTX8MG-8" value="" style="html=1;points=[];perimeter=orthogonalPerimeter;strokeWidth=1;" parent="1" vertex="1">
                    <mxGeometry x="854.86" y="1756" width="10" height="50" as="geometry"/>
                </mxCell>
                <mxCell id="Mr87jgYwq6zl1bmTX8MG-9" value="Change valuation status to denied" style="edgeStyle=orthogonalEdgeStyle;html=1;align=left;spacingLeft=2;endArrow=block;rounded=0;" parent="1" edge="1">
                    <mxGeometry x="-0.0841" relative="1" as="geometry">
                        <mxPoint x="864.8600000000004" y="1758" as="sourcePoint"/>
                        <Array as="points">
                            <mxPoint x="880" y="1758"/>
                            <mxPoint x="880" y="1781"/>
                        </Array>
                        <mxPoint x="865" y="1781" as="targetPoint"/>
                        <mxPoint as="offset"/>
                    </mxGeometry>
                </mxCell>
                <mxCell id="Mr87jgYwq6zl1bmTX8MG-10" value="&lt;font style=&quot;font-size: 10px;&quot;&gt;[ if client accept proposal ]&lt;/font&gt;" style="text;html=1;strokeColor=none;fillColor=none;align=center;verticalAlign=middle;whiteSpace=wrap;rounded=0;" parent="1" vertex="1">
                    <mxGeometry x="266.86" y="1701" width="104.14" height="30" as="geometry"/>
                </mxCell>
                <mxCell id="Mr87jgYwq6zl1bmTX8MG-11" value="&lt;font style=&quot;font-size: 10px;&quot;&gt;[ if client deny proposal ]&lt;/font&gt;" style="text;html=1;strokeColor=none;fillColor=none;align=center;verticalAlign=middle;whiteSpace=wrap;rounded=0;" parent="1" vertex="1">
                    <mxGeometry x="266.86" y="1776" width="104.14" height="30" as="geometry"/>
                </mxCell>
            </root>
        </mxGraphModel>
    </diagram>
    <diagram id="Nu9OIAXJfPsuuZym9LZ0" name="SEQUENCE - PARTENAIRE">
        <mxGraphModel dx="1420" dy="960" grid="1" gridSize="40" guides="1" tooltips="1" connect="1" arrows="1" fold="1" page="1" pageScale="1" pageWidth="1169" pageHeight="827" math="0" shadow="0">
            <root>
                <mxCell id="0"/>
                <mxCell id="1" parent="0"/>
                <mxCell id="7lQ6jQ1Xd5ZjlNzy4Gpf-1" value="&lt;b&gt;&lt;i&gt;alt&lt;/i&gt;&lt;/b&gt;" style="shape=umlFrame;whiteSpace=wrap;html=1;strokeWidth=1;width=40;height=20;" vertex="1" parent="1">
                    <mxGeometry x="228.14" y="201" width="288.86" height="240" as="geometry"/>
                </mxCell>
                <mxCell id="GVIEb9-pBp_S9vaKaW2J-1" value="&lt;b&gt;Partner&amp;nbsp;&lt;br&gt;&lt;/b&gt;" style="shape=umlFrame;whiteSpace=wrap;html=1;strokeWidth=2;width=120;height=40;" vertex="1" parent="1">
                    <mxGeometry x="215" y="40" width="780" height="1040" as="geometry"/>
                </mxCell>
                <mxCell id="hNronZQC_u_wRaQRVeMW-1" value="" style="shape=umlLifeline;participant=umlActor;perimeter=lifelinePerimeter;whiteSpace=wrap;html=1;container=1;collapsible=0;recursiveResize=0;verticalAlign=top;spacingTop=36;outlineConnect=0;strokeWidth=1;" vertex="1" parent="1">
                    <mxGeometry x="351" y="121" width="20" height="960" as="geometry"/>
                </mxCell>
                <mxCell id="7lQ6jQ1Xd5ZjlNzy4Gpf-8" value="" style="html=1;points=[];perimeter=orthogonalPerimeter;strokeWidth=1;" vertex="1" parent="hNronZQC_u_wRaQRVeMW-1">
                    <mxGeometry x="5" y="172" width="10" height="54.5" as="geometry"/>
                </mxCell>
                <mxCell id="7lQ6jQ1Xd5ZjlNzy4Gpf-5" value="" style="html=1;points=[];perimeter=orthogonalPerimeter;strokeWidth=1;" vertex="1" parent="hNronZQC_u_wRaQRVeMW-1">
                    <mxGeometry x="5" y="251" width="10" height="55" as="geometry"/>
                </mxCell>
                <mxCell id="hNronZQC_u_wRaQRVeMW-2" value=": Partner" style="text;align=center;fontStyle=1;verticalAlign=middle;spacingLeft=3;spacingRight=3;strokeColor=none;rotatable=0;points=[[0,0.5],[1,0.5]];portConstraint=eastwest;" vertex="1" parent="1">
                    <mxGeometry x="321" y="95" width="80" height="26" as="geometry"/>
                </mxCell>
                <mxCell id="59ha9mTqgnND45qyfUWH-1" value=": Valuation" style="shape=umlLifeline;perimeter=lifelinePerimeter;whiteSpace=wrap;html=1;container=1;collapsible=0;recursiveResize=0;outlineConnect=0;strokeWidth=1;" vertex="1" parent="1">
                    <mxGeometry x="799.86" y="121" width="100" height="960" as="geometry"/>
                </mxCell>
                <mxCell id="Ofyg-vocm_YG-gugmvAv-2" value="" style="html=1;points=[];perimeter=orthogonalPerimeter;strokeWidth=1;" vertex="1" parent="1">
                    <mxGeometry x="356.57" y="211.5" width="10" height="55.5" as="geometry"/>
                </mxCell>
                <mxCell id="Ofyg-vocm_YG-gugmvAv-3" value="Login" style="edgeStyle=orthogonalEdgeStyle;html=1;align=left;spacingLeft=2;endArrow=block;rounded=0;entryX=1;entryY=0.365;entryDx=0;entryDy=0;entryPerimeter=0;" edge="1" parent="1" target="Ofyg-vocm_YG-gugmvAv-2">
                    <mxGeometry x="-0.0841" relative="1" as="geometry">
                        <mxPoint x="366.57" y="211.5" as="sourcePoint"/>
                        <Array as="points">
                            <mxPoint x="396.57" y="211.75"/>
                            <mxPoint x="396.57" y="231.75"/>
                        </Array>
                        <mxPoint x="374.07" y="231.5" as="targetPoint"/>
                        <mxPoint as="offset"/>
                    </mxGeometry>
                </mxCell>
                <mxCell id="7lQ6jQ1Xd5ZjlNzy4Gpf-2" value="" style="endArrow=none;dashed=1;html=1;exitX=-0.003;exitY=0.333;exitDx=0;exitDy=0;exitPerimeter=0;entryX=1.001;entryY=0.333;entryDx=0;entryDy=0;entryPerimeter=0;" edge="1" parent="1" source="7lQ6jQ1Xd5ZjlNzy4Gpf-1" target="7lQ6jQ1Xd5ZjlNzy4Gpf-1">
                    <mxGeometry width="50" height="50" relative="1" as="geometry">
                        <mxPoint x="236.88" y="275.30200000000013" as="sourcePoint"/>
                        <mxPoint x="517" y="275" as="targetPoint"/>
                    </mxGeometry>
                </mxCell>
                <mxCell id="7lQ6jQ1Xd5ZjlNzy4Gpf-3" value="&lt;font style=&quot;font-size: 10px;&quot;&gt;[ if registered ]&lt;/font&gt;" style="text;html=1;strokeColor=none;fillColor=none;align=center;verticalAlign=middle;whiteSpace=wrap;rounded=0;" vertex="1" parent="1">
                    <mxGeometry x="215" y="231" width="104.14" height="30" as="geometry"/>
                </mxCell>
                <mxCell id="7lQ6jQ1Xd5ZjlNzy4Gpf-4" value="&lt;font style=&quot;font-size: 10px;&quot;&gt;[ if not registered ]&lt;/font&gt;" style="text;html=1;strokeColor=none;fillColor=none;align=center;verticalAlign=middle;whiteSpace=wrap;rounded=0;" vertex="1" parent="1">
                    <mxGeometry x="223" y="306" width="104.14" height="30" as="geometry"/>
                </mxCell>
                <mxCell id="7lQ6jQ1Xd5ZjlNzy4Gpf-6" value="Register" style="edgeStyle=orthogonalEdgeStyle;html=1;align=left;spacingLeft=2;endArrow=block;rounded=0;entryX=1;entryY=0.365;entryDx=0;entryDy=0;entryPerimeter=0;" edge="1" parent="1">
                    <mxGeometry x="-0.2517" y="3" relative="1" as="geometry">
                        <mxPoint x="366.56999999999994" y="293.25" as="sourcePoint"/>
                        <Array as="points">
                            <mxPoint x="396.57" y="293.5"/>
                            <mxPoint x="396.57" y="313.5"/>
                        </Array>
                        <mxPoint x="366.56999999999994" y="313.50749999999994" as="targetPoint"/>
                        <mxPoint as="offset"/>
                    </mxGeometry>
                </mxCell>
                <mxCell id="7lQ6jQ1Xd5ZjlNzy4Gpf-7" value="Receive affiliate code" style="edgeStyle=orthogonalEdgeStyle;html=1;align=left;spacingLeft=2;endArrow=block;rounded=0;entryX=1;entryY=0.365;entryDx=0;entryDy=0;entryPerimeter=0;" edge="1" parent="1">
                    <mxGeometry x="-0.2517" y="3" relative="1" as="geometry">
                        <mxPoint x="365.99999999999994" y="372" as="sourcePoint"/>
                        <Array as="points">
                            <mxPoint x="396" y="372.25"/>
                            <mxPoint x="396" y="392.25"/>
                        </Array>
                        <mxPoint x="365.99999999999994" y="392.25749999999994" as="targetPoint"/>
                        <mxPoint as="offset"/>
                    </mxGeometry>
                </mxCell>
                <mxCell id="DvAzjRHtVMXmpnsEtnND-1" value="&lt;b&gt;&lt;i&gt;seq&lt;/i&gt;&lt;/b&gt;&amp;nbsp;check affiliated valuations" style="shape=umlFrame;whiteSpace=wrap;html=1;strokeWidth=1;width=86;height=80;" vertex="1" parent="1">
                    <mxGeometry x="263.86" y="626" width="656.14" height="175" as="geometry"/>
                </mxCell>
                <mxCell id="DvAzjRHtVMXmpnsEtnND-2" value="" style="html=1;points=[];perimeter=orthogonalPerimeter;strokeWidth=1;" vertex="1" parent="1">
                    <mxGeometry x="844.86" y="656" width="10" height="105" as="geometry"/>
                </mxCell>
                <mxCell id="DvAzjRHtVMXmpnsEtnND-3" value="" style="html=1;points=[];perimeter=orthogonalPerimeter;strokeWidth=1;" vertex="1" parent="1">
                    <mxGeometry x="356" y="656" width="10" height="105" as="geometry"/>
                </mxCell>
                <mxCell id="DvAzjRHtVMXmpnsEtnND-4" value="Get affiliated valuations" style="html=1;verticalAlign=bottom;endArrow=block;entryX=0.114;entryY=0;rounded=0;exitX=0.9;exitY=0;exitDx=0;exitDy=0;exitPerimeter=0;entryDx=0;entryDy=0;entryPerimeter=0;" edge="1" parent="1" source="DvAzjRHtVMXmpnsEtnND-3" target="DvAzjRHtVMXmpnsEtnND-2">
                    <mxGeometry relative="1" as="geometry">
                        <mxPoint x="551" y="656" as="sourcePoint"/>
                        <mxPoint x="621" y="656" as="targetPoint"/>
                    </mxGeometry>
                </mxCell>
                <mxCell id="WM7anDjow0eFtK2l7FgU-1" value="Return affiliated valuations" style="html=1;verticalAlign=bottom;endArrow=open;dashed=1;endSize=8;exitX=-0.486;exitY=0.744;rounded=0;entryX=1;entryY=0.784;entryDx=0;entryDy=0;entryPerimeter=0;exitDx=0;exitDy=0;exitPerimeter=0;" edge="1" parent="1">
                    <mxGeometry relative="1" as="geometry">
                        <mxPoint x="366" y="741.5" as="targetPoint"/>
                        <mxPoint x="840.0000000000002" y="741.7000000000003" as="sourcePoint"/>
                    </mxGeometry>
                </mxCell>
                <mxCell id="9374-wNdk6-sPpM5aLJW-1" value="&lt;b&gt;&lt;i&gt;seq&lt;/i&gt;&lt;/b&gt;&amp;nbsp;view valuation" style="shape=umlFrame;whiteSpace=wrap;html=1;strokeWidth=1;width=86;height=80;" vertex="1" parent="1">
                    <mxGeometry x="263.86" y="841" width="656.14" height="175" as="geometry"/>
                </mxCell>
                <mxCell id="9374-wNdk6-sPpM5aLJW-2" value="" style="html=1;points=[];perimeter=orthogonalPerimeter;strokeWidth=1;" vertex="1" parent="1">
                    <mxGeometry x="844.86" y="871" width="10" height="105" as="geometry"/>
                </mxCell>
                <mxCell id="9374-wNdk6-sPpM5aLJW-3" value="" style="html=1;points=[];perimeter=orthogonalPerimeter;strokeWidth=1;" vertex="1" parent="1">
                    <mxGeometry x="356" y="871" width="10" height="105" as="geometry"/>
                </mxCell>
                <mxCell id="9374-wNdk6-sPpM5aLJW-4" value="Select one valuation" style="html=1;verticalAlign=bottom;endArrow=block;entryX=0.114;entryY=0;rounded=0;exitX=0.9;exitY=0;exitDx=0;exitDy=0;exitPerimeter=0;entryDx=0;entryDy=0;entryPerimeter=0;" edge="1" parent="1" source="9374-wNdk6-sPpM5aLJW-3" target="9374-wNdk6-sPpM5aLJW-2">
                    <mxGeometry relative="1" as="geometry">
                        <mxPoint x="551" y="871" as="sourcePoint"/>
                        <mxPoint x="621" y="871" as="targetPoint"/>
                    </mxGeometry>
                </mxCell>
                <mxCell id="9374-wNdk6-sPpM5aLJW-5" value="Return valuation with infoClient and PDF" style="html=1;verticalAlign=bottom;endArrow=open;dashed=1;endSize=8;exitX=-0.486;exitY=0.744;rounded=0;entryX=1;entryY=0.784;entryDx=0;entryDy=0;entryPerimeter=0;exitDx=0;exitDy=0;exitPerimeter=0;" edge="1" parent="1">
                    <mxGeometry relative="1" as="geometry">
                        <mxPoint x="366" y="956.5" as="targetPoint"/>
                        <mxPoint x="840.0000000000002" y="956.7000000000003" as="sourcePoint"/>
                    </mxGeometry>
                </mxCell>
                <mxCell id="9374-wNdk6-sPpM5aLJW-6" value="&lt;b&gt;&lt;i&gt;seq&lt;/i&gt;&lt;/b&gt;&amp;nbsp;get affiliation code" style="shape=umlFrame;whiteSpace=wrap;html=1;strokeWidth=1;width=86;height=80;" vertex="1" parent="1">
                    <mxGeometry x="263.86" y="459" width="216.14" height="142" as="geometry"/>
                </mxCell>
                <mxCell id="9374-wNdk6-sPpM5aLJW-8" value="" style="html=1;points=[];perimeter=orthogonalPerimeter;strokeWidth=1;" vertex="1" parent="1">
                    <mxGeometry x="356" y="489" width="10" height="72" as="geometry"/>
                </mxCell>
                <mxCell id="9374-wNdk6-sPpM5aLJW-11" value="Get affiliaton code" style="edgeStyle=orthogonalEdgeStyle;html=1;align=left;spacingLeft=2;endArrow=block;rounded=0;entryX=1.326;entryY=0.305;entryDx=0;entryDy=0;entryPerimeter=0;exitX=0.951;exitY=0.033;exitDx=0;exitDy=0;exitPerimeter=0;" edge="1" parent="1" source="9374-wNdk6-sPpM5aLJW-8">
                    <mxGeometry x="-0.0841" relative="1" as="geometry">
                        <mxPoint x="354.5899999999999" y="489.03" as="sourcePoint"/>
                        <Array as="points">
                            <mxPoint x="366" y="489"/>
                            <mxPoint x="397" y="489"/>
                            <mxPoint x="397" y="521"/>
                        </Array>
                        <mxPoint x="366.26" y="521.0249999999999" as="targetPoint"/>
                        <mxPoint as="offset"/>
                    </mxGeometry>
                </mxCell>
            </root>
        </mxGraphModel>
    </diagram>
</mxfile>